<!-- Generated by IcoMoon.io -->
<svg version="1.1" xmlns="http://www.w3.org/2000/svg" width="32" height="32" viewBox="0 0 32 32">
<path fill="#54a75c" d="M16.435 2.946c0.213-0.191 0.495-0.291 0.783-0.278 6.094 0.182 11.188 4.607 12.111 10.52 0.006 0.035 0.006 0.071 0 0.107 0.020 0.28-0.075 0.556-0.263 0.767s-0.454 0.34-0.739 0.359l-10.239 0.675c-0.339 0.030-0.675-0.081-0.925-0.307s-0.393-0.544-0.391-0.878l-0.688-10.058v-0.166c0.013-0.283 0.139-0.549 0.352-0.74zM15.733 17.725l8.875-0.569 0.060 0.024c0.381 0.006 0.744 0.161 1.009 0.43s0.41 0.63 0.404 1.004c-0.35 5.096-4.086 9.354-9.17 10.451s-10.297-1.23-12.793-5.712c-0.734-1.291-1.198-2.713-1.364-4.182-0.065-0.435-0.093-0.875-0.085-1.315 0.017-5.419 3.875-10.096 9.273-11.242 0.653-0.122 1.309 0.204 1.594 0.794 0.071 0.107 0.128 0.222 0.169 0.344 0.101 1.562 0.206 3.109 0.311 4.65 0.083 1.217 0.165 2.43 0.245 3.642-0.004 0.286 0.041 0.57 0.133 0.841 0.217 0.533 0.756 0.872 1.34 0.841z"></path>
<path fill="#3fa949" d="M16.435 2.946c0.213-0.191 0.495-0.291 0.783-0.278 6.094 0.182 11.188 4.607 12.111 10.52 0.006 0.035 0.006 0.071 0 0.107 0.020 0.28-0.075 0.556-0.263 0.767s-0.454 0.34-0.739 0.359l-10.239 0.675c-0.339 0.030-0.675-0.081-0.925-0.307s-0.393-0.544-0.391-0.878l-0.688-10.058v-0.166c0.013-0.283 0.139-0.549 0.352-0.74zM15.733 17.725l8.875-0.569 0.060 0.024c0.381 0.006 0.744 0.161 1.009 0.43s0.41 0.63 0.404 1.004c-0.35 5.096-4.086 9.354-9.17 10.451s-10.297-1.23-12.793-5.712c-0.734-1.291-1.198-2.713-1.364-4.182-0.065-0.435-0.093-0.875-0.085-1.315 0.017-5.419 3.875-10.096 9.273-11.242 0.653-0.122 1.309 0.204 1.594 0.794 0.071 0.107 0.128 0.222 0.169 0.344 0.101 1.562 0.206 3.109 0.311 4.65 0.083 1.217 0.165 2.43 0.245 3.642-0.004 0.286 0.041 0.57 0.133 0.841 0.217 0.533 0.756 0.872 1.34 0.841z"></path>
<path fill="#479b4e" d="M16.435 2.946c0.213-0.191 0.495-0.291 0.783-0.278 6.094 0.182 11.188 4.607 12.111 10.52 0.006 0.035 0.006 0.071 0 0.107 0.020 0.28-0.075 0.556-0.263 0.767s-0.454 0.34-0.739 0.359l-10.239 0.675c-0.339 0.030-0.675-0.081-0.925-0.307s-0.393-0.544-0.391-0.878l-0.688-10.058v-0.166c0.013-0.283 0.139-0.549 0.352-0.74zM15.733 17.725l8.875-0.569 0.060 0.024c0.381 0.006 0.744 0.161 1.009 0.43s0.41 0.63 0.404 1.004c-0.35 5.096-4.086 9.354-9.17 10.451s-10.297-1.23-12.793-5.712c-0.734-1.291-1.198-2.713-1.364-4.182-0.065-0.435-0.093-0.875-0.085-1.315 0.017-5.419 3.875-10.096 9.273-11.242 0.653-0.122 1.309 0.204 1.594 0.794 0.071 0.107 0.128 0.222 0.169 0.344 0.101 1.562 0.206 3.109 0.311 4.65 0.083 1.217 0.165 2.43 0.245 3.642-0.004 0.286 0.041 0.57 0.133 0.841 0.217 0.533 0.756 0.872 1.34 0.841z"></path>
<path fill="#3bc76b" d="M16.435 2.946c0.213-0.191 0.495-0.291 0.783-0.278 6.094 0.182 11.188 4.607 12.111 10.52 0.006 0.035 0.006 0.071 0 0.107 0.020 0.28-0.075 0.556-0.263 0.767s-0.454 0.34-0.739 0.359l-10.239 0.675c-0.339 0.030-0.675-0.081-0.925-0.307s-0.393-0.544-0.391-0.878l-0.688-10.058v-0.166c0.013-0.283 0.139-0.549 0.352-0.74zM15.733 17.725l8.875-0.569 0.060 0.024c0.381 0.006 0.744 0.161 1.009 0.43s0.41 0.63 0.404 1.004c-0.35 5.096-4.086 9.354-9.17 10.451s-10.297-1.23-12.793-5.712c-0.734-1.291-1.198-2.713-1.364-4.182-0.065-0.435-0.093-0.875-0.085-1.315 0.017-5.419 3.875-10.096 9.273-11.242 0.653-0.122 1.309 0.204 1.594 0.794 0.071 0.107 0.128 0.222 0.169 0.344 0.101 1.562 0.206 3.109 0.311 4.65 0.083 1.217 0.165 2.43 0.245 3.642-0.004 0.286 0.041 0.57 0.133 0.841 0.217 0.533 0.756 0.872 1.34 0.841z"></path>
</svg>
