<!-- Generated by IcoMoon.io -->
<svg version="1.1" xmlns="http://www.w3.org/2000/svg" width="32" height="32" viewBox="0 0 32 32">
<path fill="#777d82" d="M13.194 14.973c-0.583 0-1.045 0.453-1.045 1.027 0 0.56 0.461 1.027 1.045 1.027h8.14v6.373c0 3.267-2.7 5.933-6.037 5.933h-6.607c-3.324 0-6.023-2.653-6.023-5.92v-14.813c0-3.28 2.713-5.933 6.037-5.933h6.62c3.31 0 6.010 2.653 6.010 5.92v6.387h-8.14zM26.174 11.387l3.893 3.88c0.2 0.2 0.307 0.453 0.307 0.733 0 0.267-0.107 0.533-0.307 0.72l-3.893 3.88c-0.2 0.2-0.467 0.307-0.72 0.307-0.267 0-0.533-0.107-0.733-0.307-0.4-0.4-0.4-1.053 0-1.453l2.133-2.12h-5.52v-2.053h5.52l-2.133-2.12c-0.4-0.4-0.4-1.053 0-1.453 0.4-0.413 1.053-0.413 1.453-0.013z"></path>
</svg>
