<!-- Generated by IcoMoon.io -->
<svg version="1.1" xmlns="http://www.w3.org/2000/svg" width="32" height="32" viewBox="0 0 32 32">
<path fill="#777d82" d="M18.95 10.35c0 3.525-2.885 6.35-6.484 6.35-3.598 0-6.484-2.825-6.484-6.35s2.886-6.35 6.484-6.35c3.599 0 6.484 2.825 6.484 6.35zM2.667 23.89c0-3.263 4.514-4.080 9.799-4.080 5.314 0 9.799 0.845 9.799 4.11 0 3.263-4.514 4.079-9.799 4.079-5.314 0-9.799-0.845-9.799-4.11zM21.565 10.465c0 1.795-0.551 3.47-1.516 4.861-0.1 0.143-0.012 0.336 0.163 0.367 0.243 0.040 0.492 0.064 0.746 0.069 2.531 0.065 4.802-1.531 5.43-3.934 0.93-3.566-1.799-6.768-5.276-6.768-0.377 0-0.738 0.038-1.091 0.109-0.048 0.010-0.101 0.033-0.127 0.074-0.034 0.052-0.009 0.12 0.025 0.165 1.045 1.435 1.645 3.181 1.645 5.057zM25.756 18.27c1.701 0.326 2.819 0.989 3.282 1.956 0.393 0.792 0.393 1.712 0 2.504-0.708 1.497-2.994 1.979-3.883 2.103-0.184 0.026-0.331-0.128-0.312-0.309 0.454-4.15-3.156-6.117-4.090-6.57-0.039-0.022-0.048-0.052-0.044-0.073 0.003-0.013 0.020-0.033 0.050-0.037 2.021-0.038 4.194 0.234 4.997 0.425z"></path>
</svg>
