<svg width="12" height="12" viewBox="0 0 12 12" fill="none" xmlns="http://www.w3.org/2000/svg">
<path fill-rule="evenodd" clip-rule="evenodd" d="M6.34294 1.13513C6.13679 0.941097 5.80342 0.956023 5.61684 1.17991L3.11684 4.17991L3.08293 4.2253C2.86691 4.5495 3.09631 5 3.50096 5H8.50096L8.55754 4.997C8.94489 4.9554 9.14412 4.49077 8.88507 4.17991L6.38507 1.17991L6.34294 1.13513ZM8.91898 7.7747C9.135 7.4505 8.90561 7 8.50096 7H3.50096L3.44437 7.003C3.05702 7.0446 2.85779 7.50923 3.11684 7.82009L5.61684 10.8201L5.65897 10.8649C5.86512 11.0589 6.1985 11.044 6.38507 10.8201L8.88507 7.82009L8.91898 7.7747Z" fill="#777D82"/>
</svg>
