<svg width="113" height="100" viewBox="0 0 113 100" fill="none" xmlns="http://www.w3.org/2000/svg">
<path fill-rule="evenodd" clip-rule="evenodd" d="M5.64453 95.2413V76.2212C5.64453 72.8751 12.4248 70.1613 20.7846 70.1613H55.0206C63.3833 70.1613 70.1607 72.8751 70.1607 76.2212V95.9678L5.64453 95.2413Z" fill="#B0D4FF"/>
<path fill-rule="evenodd" clip-rule="evenodd" d="M53.5487 2.66265C49.5022 0.528401 43.3428 0.239862 42.3437 0.105033C30.3718 -1.50996 23.1663 15.9538 22.7431 21.2466C21.9614 31.0003 16.8218 32.4873 9.58983 38.5944C-4.91521 50.8441 -0.663026 65.0763 7.26832 70.3633C12.0289 73.5378 20.4157 70.3633 20.4157 70.3633C20.5333 70.4459 43.3546 57.556 54.6037 51.3368C71.4684 48.9293 63.8603 8.10006 53.5487 2.66265Z" fill="#233862"/>
<path fill-rule="evenodd" clip-rule="evenodd" d="M36.0021 46.1069C32.4649 44.5651 29.7883 38.8353 29.8386 38.8323C31.4475 38.7595 33.8158 36.5125 35.1763 27.4194L35.4831 27.6357L46.7734 32.607C46.7734 32.607 45.9394 36.2472 45.3981 39.7125C44.9456 42.6241 44.7001 45.4132 45.3301 45.8242C45.3804 45.8562 39.7581 47.7448 36.0021 46.1069Z" fill="#FFB27D"/>
<path fill-rule="evenodd" clip-rule="evenodd" d="M46.7727 32.3461C46.7727 32.3461 45.9549 36.0194 45.4242 39.5162C38.9394 38.3339 36.3931 31.7814 35.4824 28.2258L46.7727 32.3461Z" fill="#ED975D"/>
<path fill-rule="evenodd" clip-rule="evenodd" d="M49.1303 35.4799C49.1303 35.4799 33.2986 33.3852 34.7727 23.7013C36.2468 14.0175 35.1977 7.22414 45.3678 8.14864C55.5379 9.07607 56.9347 13.0608 57.2409 16.4106C57.547 19.7605 53.2852 35.7725 49.1303 35.4799Z" fill="#FFB27D"/>
<path fill-rule="evenodd" clip-rule="evenodd" d="M56.451 12.0731C56.451 12.0731 46.5932 20.9203 39.8894 21.634C33.1827 22.3477 30.6445 20.1042 30.6445 20.1042C30.6445 20.1042 34.5963 16.6864 36.9755 11.1697C37.675 9.54355 39.158 8.42936 40.8636 8.27578C45.6508 7.84516 54.7252 7.64943 56.451 12.0731Z" fill="#233862"/>
<path fill-rule="evenodd" clip-rule="evenodd" d="M50 10.7593C50 10.7593 53.3385 14.0284 54.3927 16.4528C55.406 18.7943 55.7105 24.39 54.9023 26.6129C54.9023 26.6129 60.1091 16.3699 57.1601 11.3936C54.0354 6.11494 50 10.7593 50 10.7593Z" fill="#233862"/>
<path fill-rule="evenodd" clip-rule="evenodd" d="M55.2805 96.9011C54.4444 97.6154 52.1006 98.0423 49.0175 98.2426C39.3164 98.8815 22.2669 97.2989 21.6186 95.5247C19.3804 89.386 20.9615 87.4782 19.0958 78.0786C18.8993 77.0797 18.6587 75.9966 18.3771 74.8176C16.8194 68.3625 15.3058 66.1672 20.8266 55.7948C25.8341 46.401 30.6553 38.4408 31.1246 38.7167C44.3341 46.4785 45.3045 40.8081 45.3045 40.8081C45.3045 40.8081 59.0999 53.887 58.8681 69.161C58.3959 100.473 58.7391 93.9276 55.2805 96.9011Z" fill="white"/>
<path fill-rule="evenodd" clip-rule="evenodd" d="M22.5671 95.5344C20.3074 89.3004 21.239 86.5433 19.3555 76.9978L24.5138 64.5162C24.5138 64.5162 23.7349 79.2635 28.1002 83.1413C32.4655 87.019 45.9818 90.6285 48.1053 93.8693C49.1299 95.4263 49.8052 96.9833 50.0006 98.2366C40.2069 98.8853 23.2216 97.3361 22.5671 95.5344Z" fill="#EBF3FF"/>
<path fill-rule="evenodd" clip-rule="evenodd" d="M37.9043 91.9477C37.9043 91.9477 47.4696 89.6114 49.012 90.5414C50.5544 91.4747 54.3254 94.8666 54.8004 96.0476C55.2726 97.2287 51.3637 95.1498 50.0911 94.7765C49.2701 94.5351 47.1001 95.359 46.0298 95.7516C41.514 97.4057 38.7488 96.5561 38.7488 96.5561L37.9043 91.9477Z" fill="#FFB27D"/>
<path fill-rule="evenodd" clip-rule="evenodd" d="M14.4235 45.1527C8.19949 53.7871 -4.14367 90.5813 2.93164 95.4916C10.899 101.017 39.1886 96.936 39.1886 96.936C39.1886 96.936 40.1302 92.5594 38.8213 90.4392C37.5094 88.3219 16.2252 84.9024 15.2427 83.9249C14.2603 82.9475 27.5218 64.8636 27.5218 61.9314C27.5218 58.9991 31.1247 38.7097 31.1247 38.7097C31.1247 38.7097 18.8431 39.0184 14.4235 45.1527Z" fill="white"/>
<path fill-rule="evenodd" clip-rule="evenodd" d="M49.1934 93.5484C49.1934 93.5484 51.3517 96.2103 52.0595 96.5272C52.7674 96.8441 53.2256 96.7656 53.2256 96.7656L51.772 94.2637L49.1934 93.5484Z" fill="#FFB27D"/>
<path fill-rule="evenodd" clip-rule="evenodd" d="M48.3867 91.129L54.8383 93.978C54.8383 93.978 54.5623 94.3855 53.7701 94.353C52.9746 94.3205 50.9713 93.6533 50.9713 93.6533L48.3867 91.129Z" fill="#FFB27D"/>
<path fill-rule="evenodd" clip-rule="evenodd" d="M52.4199 100H98.2958L112.097 65.3226H66.2915L52.4199 100Z" fill="#FDC748"/>
<path fill-rule="evenodd" clip-rule="evenodd" d="M98.3882 98.3871H37.9043V100H97.852L98.3882 98.3871Z" fill="#E6B137"/>
<path fill-rule="evenodd" clip-rule="evenodd" d="M86.1949 82.6599C86.5646 81.5475 85.8222 80.6451 84.5362 80.6451C83.2533 80.6451 81.9144 81.5475 81.5448 82.6599C81.1782 83.7724 81.9206 84.6774 83.2036 84.6774C84.4896 84.6774 85.8284 83.7724 86.1949 82.6599Z" fill="white"/>
</svg>
