<svg aria-hidden="true" style="position: absolute; width: 0; height: 0; overflow: hidden;" version="1.1" xmlns="http://www.w3.org/2000/svg" xmlns:xlink="http://www.w3.org/1999/xlink">
<defs>

<symbol id="icon-Logout" viewBox="0 0 32 32">
<path d="M13.194 14.973c-0.583 0-1.045 0.453-1.045 1.027 0 0.56 0.461 1.027 1.045 1.027h8.14v6.373c0 3.267-2.7 5.933-6.037 5.933h-6.607c-3.324 0-6.023-2.653-6.023-5.92v-14.813c0-3.28 2.713-5.933 6.037-5.933h6.62c3.31 0 6.010 2.653 6.010 5.92v6.387h-8.14zM26.174 11.387l3.893 3.88c0.2 0.2 0.307 0.453 0.307 0.733 0 0.267-0.107 0.533-0.307 0.72l-3.893 3.88c-0.2 0.2-0.467 0.307-0.72 0.307-0.267 0-0.533-0.107-0.733-0.307-0.4-0.4-0.4-1.053 0-1.453l2.133-2.12h-5.52v-2.053h5.52l-2.133-2.12c-0.4-0.4-0.4-1.053 0-1.453 0.4-0.413 1.053-0.413 1.453-0.013z"></path>
</symbol>

<symbol id="icon-Star" viewBox="0 0 32 32">
<path fill="#777d82" style="fill: var(--color1, #777d82)" d="M23.892 19.093c-0.345 0.335-0.504 0.819-0.425 1.293l1.185 6.56c0.1 0.556-0.135 1.119-0.6 1.44-0.456 0.333-1.063 0.373-1.56 0.107l-5.905-3.080c-0.205-0.109-0.433-0.168-0.667-0.175h-0.361c-0.125 0.019-0.248 0.059-0.36 0.12l-5.907 3.095c-0.292 0.147-0.623 0.199-0.947 0.147-0.789-0.149-1.316-0.901-1.187-1.695l1.187-6.56c0.079-0.479-0.080-0.965-0.425-1.305l-4.815-4.667c-0.403-0.391-0.543-0.977-0.359-1.507 0.179-0.528 0.635-0.913 1.185-1l6.627-0.961c0.504-0.052 0.947-0.359 1.173-0.812l2.92-5.987c0.069-0.133 0.159-0.256 0.267-0.36l0.12-0.093c0.063-0.069 0.135-0.127 0.215-0.173l0.145-0.053 0.227-0.093h0.561c0.501 0.052 0.943 0.352 1.173 0.8l2.959 5.96c0.213 0.436 0.628 0.739 1.107 0.812l6.627 0.961c0.56 0.080 1.028 0.467 1.213 1 0.175 0.535 0.024 1.121-0.387 1.507l-4.987 4.72z"></path>
</symbol>
<symbol id="icon-User" viewBox="0 0 32 32">
<path fill="#777d82" style="fill: var(--color1, #777d82)" d="M18.95 10.35c0 3.525-2.885 6.35-6.484 6.35-3.598 0-6.484-2.825-6.484-6.35s2.886-6.35 6.484-6.35c3.599 0 6.484 2.825 6.484 6.35zM2.667 23.89c0-3.263 4.514-4.080 9.799-4.080 5.314 0 9.799 0.845 9.799 4.11 0 3.263-4.514 4.079-9.799 4.079-5.314 0-9.799-0.845-9.799-4.11zM21.565 10.465c0 1.795-0.551 3.47-1.516 4.861-0.1 0.143-0.012 0.336 0.163 0.367 0.243 0.040 0.492 0.064 0.746 0.069 2.531 0.065 4.802-1.531 5.43-3.934 0.93-3.566-1.799-6.768-5.276-6.768-0.377 0-0.738 0.038-1.091 0.109-0.048 0.010-0.101 0.033-0.127 0.074-0.034 0.052-0.009 0.12 0.025 0.165 1.045 1.435 1.645 3.181 1.645 5.057zM25.756 18.27c1.701 0.326 2.819 0.989 3.282 1.956 0.393 0.792 0.393 1.712 0 2.504-0.708 1.497-2.994 1.979-3.883 2.103-0.184 0.026-0.331-0.128-0.312-0.309 0.454-4.15-3.156-6.117-4.090-6.57-0.039-0.022-0.048-0.052-0.044-0.073 0.003-0.013 0.020-0.033 0.050-0.037 2.021-0.038 4.194 0.234 4.997 0.425z"></path>
</symbol>
<symbol id="icon-Profile" viewBox="0 0 32 32">
<path d="M23.059 9.721c0 3.916-3.14 7.056-7.059 7.056-3.917 0-7.059-3.14-7.059-7.056s3.141-7.055 7.059-7.055c3.919 0 7.059 3.139 7.059 7.055zM16 29.333c-5.784 0-10.667-0.94-10.667-4.567 0-3.628 4.914-4.535 10.667-4.535 5.785 0 10.667 0.94 10.667 4.567 0 3.628-4.914 4.535-10.667 4.535z"></path>
</symbol>

<symbol id="icon-Credit-card" viewBox="0 0 32 32">
<path d="M2.667 9.333c0-2.209 1.791-4 4-4h18.667c2.209 0 4 1.791 4 4v1.333h-26.667v-1.333z"></path>
<path d="M2.667 13.333v9.333c0 2.209 1.791 4 4 4h18.667c2.209 0 4-1.791 4-4v-9.333h-26.667zM24 20c0 0.736-0.597 1.333-1.333 1.333s-1.333-0.597-1.333-1.333c0-0.736 0.597-1.333 1.333-1.333s1.333 0.597 1.333 1.333z"></path>
</symbol>

<symbol id="icon-Work" viewBox="0 0 32 32">
<path d="M14.273 4.692c-0.894 0-1.654 0.621-1.868 1.458h7.177c-0.213-0.837-0.974-1.458-1.868-1.458h-3.442zM21.609 6.15h2.641c2.801 0 5.083 2.309 5.083 5.144 0 0-0.080 1.2-0.107 2.872-0.003 0.132-0.067 0.262-0.172 0.34-0.642 0.474-1.229 0.865-1.282 0.892-2.214 1.485-4.788 2.53-7.529 3.050-0.179 0.035-0.355-0.058-0.446-0.217-0.768-1.331-2.204-2.198-3.805-2.198-1.59 0-3.039 0.857-3.83 2.19-0.092 0.157-0.265 0.247-0.443 0.213-2.719-0.521-5.292-1.565-7.493-3.025l-1.281-0.891c-0.107-0.067-0.173-0.189-0.173-0.324-0.040-0.689-0.107-2.903-0.107-2.903 0-2.835 2.281-5.144 5.083-5.144h2.628c0.253-1.958 1.894-3.484 3.895-3.484h3.442c2.001 0 3.642 1.526 3.895 3.484zM28.88 17.087l-0.053 0.027c-2.695 1.809-5.936 3.011-9.338 3.511-0.48 0.067-0.961-0.243-1.094-0.729-0.293-1.107-1.241-1.836-2.375-1.836h-0.040c-1.134 0-2.081 0.729-2.375 1.836-0.133 0.486-0.614 0.797-1.094 0.729-3.402-0.5-6.643-1.701-9.338-3.511-0.013-0.013-0.147-0.095-0.253-0.027-0.12 0.068-0.12 0.23-0.12 0.23l0.093 6.886c0 2.835 2.268 5.131 5.069 5.131h16.061c2.801 0 5.069-2.295 5.069-5.131l0.107-6.886c0 0 0-0.162-0.12-0.23-0.067-0.040-0.147-0.027-0.2 0zM16.994 22.744c0 0.567-0.44 1.013-1.001 1.013-0.547 0-1.001-0.445-1.001-1.013v-1.742c0-0.554 0.454-1.013 1.001-1.013 0.56 0 1.001 0.459 1.001 1.013v1.742z"></path>
</symbol>

<symbol id="icon-Scan" viewBox="0 0 32 32">
<path fill="#777d82" style="fill: var(--color1, #777d82)" d="M23.95 2.667h-2.132c-0.562 0-1.018 0.446-1.018 0.996 0 0.549 0.456 0.994 1.018 0.994h2.132c1.816 0 3.293 1.443 3.293 3.218v2.475c0 0.549 0.456 0.996 1.018 0.996 0.563 0 1.018-0.447 1.018-0.996v-2.475c0-2.872-2.39-5.208-5.33-5.208z"></path>
<path fill="#777d82" style="fill: var(--color1, #777d82)" d="M23.95 29.333h-2.132c-0.562 0-1.018-0.446-1.018-0.996 0-0.549 0.456-0.994 1.018-0.994h2.132c1.816 0 3.293-1.443 3.293-3.218v-2.475c0-0.549 0.456-0.996 1.018-0.996 0.563 0 1.018 0.447 1.018 0.996v2.475c0 2.872-2.39 5.208-5.33 5.208z"></path>
<path fill="#777d82" style="fill: var(--color1, #777d82)" d="M11.153 3.663c0-0.55-0.455-0.996-1.015-0.996l-2.173 0.001c-2.921 0.003-5.299 2.336-5.299 5.202v2.479c0 0.549 0.455 0.996 1.015 0.996s1.016-0.447 1.016-0.996v-2.479c0-1.769 1.467-3.209 3.269-3.211l2.172-0.001c0.561 0 1.015-0.446 1.015-0.995z"></path>
<path fill="#777d82" style="fill: var(--color1, #777d82)" d="M11.153 28.337c0 0.55-0.455 0.996-1.015 0.996l-2.173-0.001c-2.921-0.003-5.299-2.336-5.299-5.202v-2.479c0-0.549 0.455-0.996 1.015-0.996s1.016 0.447 1.016 0.996v2.479c0 1.769 1.467 3.209 3.269 3.211l2.172 0.001c0.561 0 1.015 0.446 1.015 0.995z"></path>
<path fill="#777d82" style="fill: var(--color1, #777d82); stroke: var(--color1, #777d82)" stroke="#777d82" stroke-linejoin="round" stroke-linecap="round" stroke-miterlimit="4" stroke-width="2" d="M8.26 8.261h5.072v5.072h-5.072v-5.072z"></path>
<path fill="#777d82" style="fill: var(--color1, #777d82); stroke: var(--color1, #777d82)" stroke="#777d82" stroke-linejoin="round" stroke-linecap="round" stroke-miterlimit="4" stroke-width="2" d="M8.159 18.827h5.173v5.173h-5.173v-5.173z"></path>
<path fill="#777d82" style="fill: var(--color1, #777d82); stroke: var(--color1, #777d82)" stroke="#777d82" stroke-linejoin="round" stroke-linecap="round" stroke-miterlimit="4" stroke-width="2" d="M18.667 18.827h5.173v1.173h-5.173v-1.173z"></path>
<path fill="#777d82" style="fill: var(--color1, #777d82); stroke: var(--color1, #777d82)" stroke="#777d82" stroke-linejoin="round" stroke-linecap="round" stroke-miterlimit="4" stroke-width="2" d="M23.839 13.173h-5.173v-5.173h5.173v5.173z"></path>
</symbol>
<symbol id="icon-icons" viewBox="0 0 32 32">
<path d="M16.435 2.946c0.213-0.191 0.495-0.291 0.783-0.278 6.094 0.182 11.188 4.607 12.111 10.52 0.006 0.035 0.006 0.071 0 0.107 0.020 0.28-0.075 0.556-0.263 0.767s-0.454 0.34-0.739 0.359l-10.239 0.675c-0.339 0.030-0.675-0.081-0.925-0.307s-0.393-0.544-0.391-0.878l-0.688-10.058v-0.166c0.013-0.283 0.139-0.549 0.352-0.74zM15.733 17.725l8.875-0.569 0.060 0.024c0.381 0.006 0.744 0.161 1.009 0.43s0.41 0.63 0.404 1.004c-0.35 5.096-4.086 9.354-9.17 10.451s-10.297-1.23-12.793-5.712c-0.734-1.291-1.198-2.713-1.364-4.182-0.065-0.435-0.093-0.875-0.085-1.315 0.017-5.419 3.875-10.096 9.273-11.242 0.653-0.122 1.309 0.204 1.594 0.794 0.071 0.107 0.128 0.222 0.169 0.344 0.101 1.562 0.206 3.109 0.311 4.65 0.083 1.217 0.165 2.43 0.245 3.642-0.004 0.286 0.041 0.57 0.133 0.841 0.217 0.533 0.756 0.872 1.34 0.841z"></path>
<path  d="M16.435 2.946c0.213-0.191 0.495-0.291 0.783-0.278 6.094 0.182 11.188 4.607 12.111 10.52 0.006 0.035 0.006 0.071 0 0.107 0.020 0.28-0.075 0.556-0.263 0.767s-0.454 0.34-0.739 0.359l-10.239 0.675c-0.339 0.030-0.675-0.081-0.925-0.307s-0.393-0.544-0.391-0.878l-0.688-10.058v-0.166c0.013-0.283 0.139-0.549 0.352-0.74zM15.733 17.725l8.875-0.569 0.060 0.024c0.381 0.006 0.744 0.161 1.009 0.43s0.41 0.63 0.404 1.004c-0.35 5.096-4.086 9.354-9.17 10.451s-10.297-1.23-12.793-5.712c-0.734-1.291-1.198-2.713-1.364-4.182-0.065-0.435-0.093-0.875-0.085-1.315 0.017-5.419 3.875-10.096 9.273-11.242 0.653-0.122 1.309 0.204 1.594 0.794 0.071 0.107 0.128 0.222 0.169 0.344 0.101 1.562 0.206 3.109 0.311 4.65 0.083 1.217 0.165 2.43 0.245 3.642-0.004 0.286 0.041 0.57 0.133 0.841 0.217 0.533 0.756 0.872 1.34 0.841z"></path>
<path  d="M16.435 2.946c0.213-0.191 0.495-0.291 0.783-0.278 6.094 0.182 11.188 4.607 12.111 10.52 0.006 0.035 0.006 0.071 0 0.107 0.020 0.28-0.075 0.556-0.263 0.767s-0.454 0.34-0.739 0.359l-10.239 0.675c-0.339 0.030-0.675-0.081-0.925-0.307s-0.393-0.544-0.391-0.878l-0.688-10.058v-0.166c0.013-0.283 0.139-0.549 0.352-0.74zM15.733 17.725l8.875-0.569 0.060 0.024c0.381 0.006 0.744 0.161 1.009 0.43s0.41 0.63 0.404 1.004c-0.35 5.096-4.086 9.354-9.17 10.451s-10.297-1.23-12.793-5.712c-0.734-1.291-1.198-2.713-1.364-4.182-0.065-0.435-0.093-0.875-0.085-1.315 0.017-5.419 3.875-10.096 9.273-11.242 0.653-0.122 1.309 0.204 1.594 0.794 0.071 0.107 0.128 0.222 0.169 0.344 0.101 1.562 0.206 3.109 0.311 4.65 0.083 1.217 0.165 2.43 0.245 3.642-0.004 0.286 0.041 0.57 0.133 0.841 0.217 0.533 0.756 0.872 1.34 0.841z"></path>
<path  d="M16.435 2.946c0.213-0.191 0.495-0.291 0.783-0.278 6.094 0.182 11.188 4.607 12.111 10.52 0.006 0.035 0.006 0.071 0 0.107 0.020 0.28-0.075 0.556-0.263 0.767s-0.454 0.34-0.739 0.359l-10.239 0.675c-0.339 0.030-0.675-0.081-0.925-0.307s-0.393-0.544-0.391-0.878l-0.688-10.058v-0.166c0.013-0.283 0.139-0.549 0.352-0.74zM15.733 17.725l8.875-0.569 0.060 0.024c0.381 0.006 0.744 0.161 1.009 0.43s0.41 0.63 0.404 1.004c-0.35 5.096-4.086 9.354-9.17 10.451s-10.297-1.23-12.793-5.712c-0.734-1.291-1.198-2.713-1.364-4.182-0.065-0.435-0.093-0.875-0.085-1.315 0.017-5.419 3.875-10.096 9.273-11.242 0.653-0.122 1.309 0.204 1.594 0.794 0.071 0.107 0.128 0.222 0.169 0.344 0.101 1.562 0.206 3.109 0.311 4.65 0.083 1.217 0.165 2.43 0.245 3.642-0.004 0.286 0.041 0.57 0.133 0.841 0.217 0.533 0.756 0.872 1.34 0.841z"></path>
</symbol>

<symbol id="icon-logo" viewBox="0 0 98 32">
<path d="M5.424 24.5v-13.968h-5.232v-2.76h13.488v2.76h-5.232v13.968h-3.024zM15.296 10.436v-2.664h3.024v2.664h-3.024zM15.367 24.5v-11.832h2.88v11.832h-2.88zM27.914 12.428c3.216 0 4.992 2.616 4.992 6.168 0 3.864-2.088 6.144-4.992 6.144-1.344 0-2.664-0.552-3.408-1.44v6.096h-2.88v-16.728h2.88v1.176c0.816-1.008 2.136-1.416 3.408-1.416zM27.194 22.22c1.92 0 2.832-1.344 2.832-3.648 0-2.328-0.888-3.624-2.808-3.624-2.088 0-2.976 1.512-2.976 3.624 0 2.064 0.888 3.648 2.952 3.648zM39.080 24.74c-2.496 0-4.392-1.512-4.968-3.312l2.304-1.032c0.312 0.864 0.936 1.944 2.52 1.944 1.344 0 1.92-0.768 1.92-1.392 0-1.992-6.096-0.672-6.096-5.064 0-2.28 2.064-3.456 4.344-3.456 2.040 0 3.6 0.96 4.488 2.568l-2.232 1.224c-0.408-0.744-1.056-1.512-2.352-1.512-0.936 0-1.512 0.456-1.512 1.008 0 1.8 6.192 0.744 6.192 5.064 0 2.76-2.376 3.96-4.608 3.96zM52.429 14.948h-2.952v6.024c0 0.936 0.576 1.368 1.512 1.368 0.408 0 0.912-0.096 1.44-0.264v2.304c-0.72 0.24-1.44 0.36-2.16 0.36-1.992 0-3.672-1.032-3.672-3.552v-6.24h-1.92v-2.28h1.92v-2.28l2.88-2.136v4.416h2.952v2.28zM59.608 12.428c3.12 0 5.064 1.752 5.064 4.608v7.464h-2.64l-0.24-1.536c-0.696 1.104-2.040 1.776-3.6 1.776-2.496 0-4.272-1.608-4.272-3.864 0-1.392 0.624-2.448 1.776-2.976 0.792-0.36 1.8-0.528 3.144-0.528h2.952v-0.336c0-1.296-0.864-2.088-2.232-2.088-1.2 0-2.328 0.624-3.192 1.776l-2.088-1.752c1.416-1.704 3.168-2.544 5.328-2.544zM58.648 22.292c1.728 0 3.144-1.224 3.144-2.76h-2.568c-0.984 0-1.56 0.12-1.944 0.408-0.312 0.216-0.48 0.552-0.48 0.984 0 0.84 0.696 1.368 1.848 1.368zM68.351 24.5v-3.12h2.904v3.12h-2.904zM81.346 12.428c0.792 0 1.488 0.192 2.256 0.672l-1.392 2.544c-0.408-0.264-0.864-0.408-1.44-0.408-1.752 0-2.616 1.080-2.616 3.312v5.952h-2.88v-11.832h2.904v2.016c0.504-1.464 1.824-2.256 3.168-2.256zM92.511 12.668h2.88v11.832h-2.88v-1.368c-0.84 1.128-2.136 1.608-3.528 1.608-2.976 0-4.224-2.16-4.224-4.68v-7.392h2.88v6.672c0 0.816 0 2.88 2.184 2.88 2.688 0 2.688-2.952 2.688-5.064v-4.488z"></path>
</symbol>
<symbol id="icon-flag" viewBox="0 0 38 32">
<path fill="#fff" style="fill: var(--color6, #fff); stroke: var(--color7, #f5f5f5)" stroke="#f5f5f5" stroke-linejoin="miter" stroke-linecap="butt" stroke-miterlimit="4" stroke-width="0.8" d="M0 0.4h38.4c1.546 0 2.8 1.254 2.8 2.8v25.6c0 1.546-1.254 2.8-2.8 2.8h-38.4c-1.546 0-2.8-1.254-2.8-2.8v-25.6c0-1.546 1.254-2.8 2.8-2.8z"></path>
<path fill="#0c47b7" style="fill: var(--color8, #0c47b7)" d="M-3.2 21.333h44.8v-10.667h-44.8v10.667z"></path>
<path fill="#e53b35" style="fill: var(--color9, #e53b35)" d="M-3.2 32h44.8v-10.667h-44.8v10.667z"></path>
<path fill="none" stroke="#e3e1e1" style="stroke: var(--color10, #e3e1e1)" stroke-linejoin="miter" stroke-linecap="butt" stroke-miterlimit="4" stroke-width="1.6" d="M6.4 0.8h25.6c3.093 0 5.6 2.507 5.6 5.6v19.2c0 3.093-2.507 5.6-5.6 5.6h-25.6c-3.093 0-5.6-2.507-5.6-5.6v-19.2c0-3.093 2.507-5.6 5.6-5.6z"></path>
</symbol>
<symbol id="icon-Arrow-down" viewBox="0 0 32 32">
<path fill="#777d82" style="fill: var(--color1, #777d82)" d="M17.012 19.486c-0.532 0.621-1.493 0.621-2.025 0l-5.101-5.951c-0.741-0.865-0.127-2.201 1.012-2.201h10.202c1.139 0 1.754 1.336 1.012 2.201l-5.101 5.951z"></path>
</symbol>
<symbol id="icon-user" viewBox="0 0 32 32">
<path fill="#f7f9fb" style="fill: var(--color11, #f7f9fb); stroke: var(--color12, #e1e3e1)" stroke="#e1e3e1" stroke-linejoin="miter" stroke-linecap="butt" stroke-miterlimit="4" stroke-width="0.7273" d="M16 0.364c8.636 0 15.636 7.001 15.636 15.636s-7.001 15.636-15.636 15.636c-8.636 0-15.636-7.001-15.636-15.636s7.001-15.636 15.636-15.636z"></path>
<path fill="#afb0b6" style="fill: var(--color13, #afb0b6)" d="M19.85 12.575c0 2.136-1.713 3.849-3.85 3.849s-3.85-1.713-3.85-3.849c0-2.136 1.713-3.848 3.85-3.848s3.85 1.712 3.85 3.848zM16 23.273c-3.155 0-5.818-0.513-5.818-2.491s2.68-2.474 5.818-2.474c3.155 0 5.818 0.513 5.818 2.491s-2.68 2.473-5.818 2.473z"></path>
</symbol>

<symbol id="icon-myPlace" viewBox="0 0 24 24">
<path fill-rule="evenodd" clip-rule="evenodd" d="M8.92574 16.39H14.3119C14.7178 16.39 15.0545 16.05 15.0545 15.64C15.0545 15.23 14.7178 14.9 14.3119 14.9H8.92574C8.5198 14.9 8.18317 15.23 8.18317 15.64C8.18317 16.05 8.5198 16.39 8.92574 16.39ZM12.2723 9.9H8.92574C8.5198 9.9 8.18317 10.24 8.18317 10.65C8.18317 11.06 8.5198 11.39 8.92574 11.39H12.2723C12.6782 11.39 13.0149 11.06 13.0149 10.65C13.0149 10.24 12.6782 9.9 12.2723 9.9ZM19.3381 9.02561C19.5708 9.02292 19.8242 9.02 20.0545 9.02C20.302 9.02 20.5 9.22 20.5 9.47V17.51C20.5 19.99 18.5099 22 16.0545 22H8.17327C5.59901 22 3.5 19.89 3.5 17.29V6.51C3.5 4.03 5.5 2 7.96535 2H13.2525C13.5099 2 13.7079 2.21 13.7079 2.46V5.68C13.7079 7.51 15.203 9.01 17.0149 9.02C17.4381 9.02 17.8112 9.02316 18.1377 9.02593C18.3917 9.02809 18.6175 9.03 18.8168 9.03C18.9578 9.03 19.1405 9.02789 19.3381 9.02561ZM19.6111 7.566C18.7972 7.569 17.8378 7.566 17.1477 7.559C16.0527 7.559 15.1507 6.648 15.1507 5.542V2.906C15.1507 2.475 15.6685 2.261 15.9646 2.572C16.5004 3.13476 17.2368 3.90834 17.9699 4.67837C18.7009 5.44632 19.4286 6.21074 19.9507 6.759C20.2398 7.062 20.0279 7.565 19.6111 7.566Z" />
</symbol>

<symbol id="icon-myStaff" viewBox="0 0 20 18">
<path fill-rule="evenodd" clip-rule="evenodd" d="M12.2124 4.76241C12.2124 7.40617 10.0489 9.52482 7.34933 9.52482C4.6507 9.52482 2.48631 7.40617 2.48631 4.76241C2.48631 2.11865 4.6507 0 7.34933 0C10.0489 0 12.2124 2.11865 12.2124 4.76241ZM0 14.9174C0 12.47 3.38553 11.8577 7.34933 11.8577C11.3347 11.8577 14.6987 12.4911 14.6987 14.9404C14.6987 17.3877 11.3131 18 7.34933 18C3.364 18 0 17.3666 0 14.9174ZM14.1734 4.84875C14.1734 6.19506 13.7605 7.45131 13.0364 8.49482C12.9611 8.60214 13.0276 8.74683 13.1587 8.76983C13.3407 8.79954 13.5276 8.81774 13.7184 8.82158C15.6167 8.87045 17.3202 7.67362 17.7908 5.87118C18.4885 3.19676 16.4415 0.795428 13.8339 0.795428C13.5511 0.795428 13.2801 0.824175 13.0159 0.876878C12.9797 0.884544 12.9405 0.901792 12.921 0.932455C12.8955 0.971743 12.9141 1.02253 12.9396 1.05607C13.7233 2.13216 14.1734 3.44206 14.1734 4.84875ZM17.3173 10.7023C18.5932 10.9466 19.4317 11.444 19.7791 12.1694C20.0736 12.7635 20.0736 13.4534 19.7791 14.0475C19.2478 15.1705 17.5335 15.5318 16.8672 15.6247C16.7292 15.6439 16.6186 15.5289 16.6333 15.3928C16.9738 12.2805 14.2664 10.8048 13.5658 10.4656C13.5364 10.4493 13.5296 10.4263 13.5325 10.411C13.5345 10.4014 13.5472 10.3861 13.5697 10.3832C15.0854 10.3545 16.7155 10.5586 17.3173 10.7023Z"/>
</symbol>

<symbol id="icon-myFeedbacks" viewBox="0 0 24 24">
<path d="M17.9189 14.3201C17.6599 14.5711 17.5409 14.9341 17.5999 15.2901L18.4889 20.2101C18.5639 20.6271 18.3879 21.0491 18.0389 21.2901C17.6969 21.5401 17.2419 21.5701 16.8689 21.3701L12.4399 19.0601C12.2859 18.9781 12.1149 18.9341 11.9399 18.9291H11.6689C11.5749 18.9431 11.4829 18.9731 11.3989 19.0191L6.96888 21.3401C6.74988 21.4501 6.50188 21.4891 6.25888 21.4501C5.66688 21.3381 5.27188 20.7741 5.36888 20.1791L6.25888 15.2591C6.31788 14.9001 6.19888 14.5351 5.93988 14.2801L2.32888 10.7801C2.02688 10.4871 1.92188 10.0471 2.05988 9.65012C2.19388 9.25412 2.53588 8.96512 2.94888 8.90012L7.91888 8.17912C8.29688 8.14012 8.62888 7.91012 8.79888 7.57012L10.9889 3.08012C11.0409 2.98012 11.1079 2.88812 11.1889 2.81012L11.2789 2.74012C11.3259 2.68812 11.3799 2.64512 11.4399 2.61012L11.5489 2.57012L11.7189 2.50012H12.1399C12.5159 2.53912 12.8469 2.76412 13.0199 3.10012L15.2389 7.57012C15.3989 7.89712 15.7099 8.12412 16.0689 8.17912L21.0389 8.90012C21.4589 8.96012 21.8099 9.25012 21.9489 9.65012C22.0799 10.0511 21.9669 10.4911 21.6589 10.7801L17.9189 14.3201Z" />
</symbol>

<symbol id="loyalty" viewBox="0 0 24 24">
<path fill-rule="evenodd" clip-rule="evenodd" d="M5.83215 2.71955C4.08577 2.65238 2.6519 4.08626 2.71906 5.83264L2.94534 11.7158C2.97439 12.471 3.2874 13.1874 3.8218 13.7218L9.99927 19.8993C11.1708 21.0708 13.0703 21.0708 14.2419 19.8993L19.8988 14.2424C21.0703 13.0708 21.0703 11.1713 19.8988 9.99976L13.7213 3.82229C13.1869 3.28789 12.4705 2.97487 11.7153 2.94583L5.83215 2.71955ZM10.2423 10.2423C11.0234 9.46129 11.0234 8.19496 10.2423 7.41391C9.46129 6.63286 8.19496 6.63286 7.41391 7.41391C6.63286 8.19496 6.63286 9.46129 7.41391 10.2423C8.19496 11.0234 9.46129 11.0234 10.2423 10.2423Z"/>
</symbol>

<symbol id="logout" viewBox="0 0 24 24">
<path fill-rule="evenodd" clip-rule="evenodd" d="M9.89535 11.23C9.45785 11.23 9.11192 11.57 9.11192 12C9.11192 12.42 9.45785 12.77 9.89535 12.77H16V17.55C16 20 13.9753 22 11.4724 22H6.51744C4.02471 22 2 20.01 2 17.56V6.45C2 3.99 4.03488 2 6.52762 2H11.4927C13.9753 2 16 3.99 16 6.44V11.23H9.89535ZM19.6302 8.5402L22.5502 11.4502C22.7002 11.6002 22.7802 11.7902 22.7802 12.0002C22.7802 12.2002 22.7002 12.4002 22.5502 12.5402L19.6302 15.4502C19.4802 15.6002 19.2802 15.6802 19.0902 15.6802C18.8902 15.6802 18.6902 15.6002 18.5402 15.4502C18.2402 15.1502 18.2402 14.6602 18.5402 14.3602L20.1402 12.7702H16.0002V11.2302H20.1402L18.5402 9.6402C18.2402 9.3402 18.2402 8.8502 18.5402 8.5502C18.8402 8.2402 19.3302 8.2402 19.6302 8.5402Z"/>
</symbol>

</defs>
</svg>
