<!-- Generated by IcoMoon.io -->
<svg version="1.1" xmlns="http://www.w3.org/2000/svg" width="32" height="32" viewBox="0 0 32 32">
<path fill="#f7f9fb" stroke="#e1e3e1" stroke-linejoin="miter" stroke-linecap="butt" stroke-miterlimit="4" stroke-width="0.7273" d="M16 0.364c8.636 0 15.636 7.001 15.636 15.636s-7.001 15.636-15.636 15.636c-8.636 0-15.636-7.001-15.636-15.636s7.001-15.636 15.636-15.636z"></path>
<path fill="#afb0b6" d="M19.85 12.575c0 2.136-1.713 3.849-3.85 3.849s-3.85-1.713-3.85-3.849c0-2.136 1.713-3.848 3.85-3.848s3.85 1.712 3.85 3.848zM16 23.273c-3.155 0-5.818-0.513-5.818-2.491s2.68-2.474 5.818-2.474c3.155 0 5.818 0.513 5.818 2.491s-2.68 2.473-5.818 2.473z"></path>
</svg>
