<svg aria-hidden="true" style="position: absolute; width: 0; height: 0; overflow: hidden;" version="1.1" xmlns="http://www.w3.org/2000/svg" xmlns:xlink="http://www.w3.org/1999/xlink">
<defs>
<symbol id="filterArrow" viewBox="0 0 32 32">
<path fill="#777d82" style="fill: var(--color1, #777d82)" d="M16.915 3.027c-0.55-0.517-1.439-0.478-1.936 0.119l-6.667 8-0.090 0.121c-0.576 0.865 0.036 2.066 1.115 2.066l13.484-0.008c1.033-0.111 1.564-1.35 0.873-2.179l-6.667-8-0.112-0.119zM23.784 20.733c0.576-0.865-0.036-2.066-1.115-2.066l-13.484 0.008c-1.033 0.111-1.564 1.35-0.873 2.179l6.667 8 0.112 0.119c0.55 0.517 1.439 0.478 1.936-0.119l6.667-8 0.090-0.121z"></path>
</symbol>
</defs>
</svg>
