<svg aria-hidden="true" style="position: absolute; width: 0; height: 0; overflow: hidden;" version="1.1" xmlns="http://www.w3.org/2000/svg" xmlns:xlink="http://www.w3.org/1999/xlink">
<defs>
<symbol id="icon-logo" viewBox="0 0 98 32">
<path d="M5.424 24.5v-13.968h-5.232v-2.76h13.488v2.76h-5.232v13.968h-3.024zM15.296 10.436v-2.664h3.024v2.664h-3.024zM15.367 24.5v-11.832h2.88v11.832h-2.88zM27.914 12.428c3.216 0 4.992 2.616 4.992 6.168 0 3.864-2.088 6.144-4.992 6.144-1.344 0-2.664-0.552-3.408-1.44v6.096h-2.88v-16.728h2.88v1.176c0.816-1.008 2.136-1.416 3.408-1.416zM27.194 22.22c1.92 0 2.832-1.344 2.832-3.648 0-2.328-0.888-3.624-2.808-3.624-2.088 0-2.976 1.512-2.976 3.624 0 2.064 0.888 3.648 2.952 3.648zM39.080 24.74c-2.496 0-4.392-1.512-4.968-3.312l2.304-1.032c0.312 0.864 0.936 1.944 2.52 1.944 1.344 0 1.92-0.768 1.92-1.392 0-1.992-6.096-0.672-6.096-5.064 0-2.28 2.064-3.456 4.344-3.456 2.040 0 3.6 0.96 4.488 2.568l-2.232 1.224c-0.408-0.744-1.056-1.512-2.352-1.512-0.936 0-1.512 0.456-1.512 1.008 0 1.8 6.192 0.744 6.192 5.064 0 2.76-2.376 3.96-4.608 3.96zM52.429 14.948h-2.952v6.024c0 0.936 0.576 1.368 1.512 1.368 0.408 0 0.912-0.096 1.44-0.264v2.304c-0.72 0.24-1.44 0.36-2.16 0.36-1.992 0-3.672-1.032-3.672-3.552v-6.24h-1.92v-2.28h1.92v-2.28l2.88-2.136v4.416h2.952v2.28zM59.608 12.428c3.12 0 5.064 1.752 5.064 4.608v7.464h-2.64l-0.24-1.536c-0.696 1.104-2.040 1.776-3.6 1.776-2.496 0-4.272-1.608-4.272-3.864 0-1.392 0.624-2.448 1.776-2.976 0.792-0.36 1.8-0.528 3.144-0.528h2.952v-0.336c0-1.296-0.864-2.088-2.232-2.088-1.2 0-2.328 0.624-3.192 1.776l-2.088-1.752c1.416-1.704 3.168-2.544 5.328-2.544zM58.648 22.292c1.728 0 3.144-1.224 3.144-2.76h-2.568c-0.984 0-1.56 0.12-1.944 0.408-0.312 0.216-0.48 0.552-0.48 0.984 0 0.84 0.696 1.368 1.848 1.368zM68.351 24.5v-3.12h2.904v3.12h-2.904zM81.346 12.428c0.792 0 1.488 0.192 2.256 0.672l-1.392 2.544c-0.408-0.264-0.864-0.408-1.44-0.408-1.752 0-2.616 1.080-2.616 3.312v5.952h-2.88v-11.832h2.904v2.016c0.504-1.464 1.824-2.256 3.168-2.256zM92.511 12.668h2.88v11.832h-2.88v-1.368c-0.84 1.128-2.136 1.608-3.528 1.608-2.976 0-4.224-2.16-4.224-4.68v-7.392h2.88v6.672c0 0.816 0 2.88 2.184 2.88 2.688 0 2.688-2.952 2.688-5.064v-4.488z"></path>
</symbol>
<symbol id="icon-triangle-up" viewBox="0 0 32 32">
<path d="M24 22.4h-16l8-14.4 8 14.4z"></path>
</symbol>
<symbol id="icon-triangle-down" viewBox="0 0 32 32">
<path d="M8 9.6h16l-8 14.4-8-14.4z"></path>
</symbol>
<symbol id="icon-flag" viewBox="0 0 38 32">
<path fill="#fff" style="fill: var(--color1, #fff); stroke: var(--color2, #f5f5f5)" stroke="#f5f5f5" stroke-linejoin="miter" stroke-linecap="butt" stroke-miterlimit="4" stroke-width="0.8" d="M0 0.4h38.4c1.546 0 2.8 1.254 2.8 2.8v25.6c0 1.546-1.254 2.8-2.8 2.8h-38.4c-1.546 0-2.8-1.254-2.8-2.8v-25.6c0-1.546 1.254-2.8 2.8-2.8z"></path>
<path fill="#0c47b7" style="fill: var(--color3, #0c47b7)" d="M-3.2 21.333h44.8v-10.667h-44.8v10.667z"></path>
<path fill="#e53b35" style="fill: var(--color4, #e53b35)" d="M-3.2 32h44.8v-10.667h-44.8v10.667z"></path>
<path fill="none" stroke="#e3e1e1" style="stroke: var(--color5, #e3e1e1)" stroke-linejoin="miter" stroke-linecap="butt" stroke-miterlimit="4" stroke-width="1.6" d="M6.4 0.8h25.6c3.093 0 5.6 2.507 5.6 5.6v19.2c0 3.093-2.507 5.6-5.6 5.6h-25.6c-3.093 0-5.6-2.507-5.6-5.6v-19.2c0-3.093 2.507-5.6 5.6-5.6z"></path>
</symbol>
<symbol id="icon-user" viewBox="0 0 32 32">
<path fill="#f7f9fb" style="fill: var(--color6, #f7f9fb); stroke: var(--color7, #e1e3e1)" stroke="#e1e3e1" stroke-linejoin="miter" stroke-linecap="butt" stroke-miterlimit="4" stroke-width="0.7273" d="M16 0.364c8.636 0 15.636 7.001 15.636 15.636s-7.001 15.636-15.636 15.636c-8.636 0-15.636-7.001-15.636-15.636s7.001-15.636 15.636-15.636z"></path>
<path fill="#afb0b6" style="fill: var(--color8, #afb0b6)" d="M19.85 12.575c0 2.136-1.713 3.849-3.85 3.849s-3.85-1.713-3.85-3.849c0-2.136 1.713-3.848 3.85-3.848s3.85 1.712 3.85 3.848zM16 23.273c-3.155 0-5.818-0.513-5.818-2.491s2.68-2.474 5.818-2.474c3.155 0 5.818 0.513 5.818 2.491s-2.68 2.473-5.818 2.473z"></path>
</symbol>
</defs>
</svg>
