<!-- Generated by IcoMoon.io -->
<svg version="1.1" xmlns="http://www.w3.org/2000/svg" width="38" height="32" viewBox="0 0 38 32">
<path fill="#fff" stroke="#f5f5f5" stroke-linejoin="miter" stroke-linecap="butt" stroke-miterlimit="4" stroke-width="0.8" d="M0 0.4h38.4c1.546 0 2.8 1.254 2.8 2.8v25.6c0 1.546-1.254 2.8-2.8 2.8h-38.4c-1.546 0-2.8-1.254-2.8-2.8v-25.6c0-1.546 1.254-2.8 2.8-2.8z"></path>
<path fill="#0c47b7" d="M-3.2 21.333h44.8v-10.667h-44.8v10.667z"></path>
<path fill="#e53b35" d="M-3.2 32h44.8v-10.667h-44.8v10.667z"></path>
<path fill="none" stroke="#e3e1e1" stroke-linejoin="miter" stroke-linecap="butt" stroke-miterlimit="4" stroke-width="1.6" d="M6.4 0.8h25.6c3.093 0 5.6 2.507 5.6 5.6v19.2c0 3.093-2.507 5.6-5.6 5.6h-25.6c-3.093 0-5.6-2.507-5.6-5.6v-19.2c0-3.093 2.507-5.6 5.6-5.6z"></path>
</svg>
