<!-- Generated by IcoMoon.io -->
<svg version="1.1" xmlns="http://www.w3.org/2000/svg" width="32" height="32" viewBox="0 0 32 32">
<path fill="#777d82" d="M23.95 2.667h-2.132c-0.562 0-1.018 0.446-1.018 0.996 0 0.549 0.456 0.994 1.018 0.994h2.132c1.816 0 3.293 1.443 3.293 3.218v2.475c0 0.549 0.456 0.996 1.018 0.996 0.563 0 1.018-0.447 1.018-0.996v-2.475c0-2.872-2.39-5.208-5.33-5.208z"></path>
<path fill="#777d82" d="M23.95 29.333h-2.132c-0.562 0-1.018-0.446-1.018-0.996 0-0.549 0.456-0.994 1.018-0.994h2.132c1.816 0 3.293-1.443 3.293-3.218v-2.475c0-0.549 0.456-0.996 1.018-0.996 0.563 0 1.018 0.447 1.018 0.996v2.475c0 2.872-2.39 5.208-5.33 5.208z"></path>
<path fill="#777d82" d="M11.153 3.663c0-0.55-0.455-0.996-1.015-0.996l-2.173 0.001c-2.921 0.003-5.299 2.336-5.299 5.202v2.479c0 0.549 0.455 0.996 1.015 0.996s1.016-0.447 1.016-0.996v-2.479c0-1.769 1.467-3.209 3.269-3.211l2.172-0.001c0.561 0 1.015-0.446 1.015-0.995z"></path>
<path fill="#777d82" d="M11.153 28.337c0 0.55-0.455 0.996-1.015 0.996l-2.173-0.001c-2.921-0.003-5.299-2.336-5.299-5.202v-2.479c0-0.549 0.455-0.996 1.015-0.996s1.016 0.447 1.016 0.996v2.479c0 1.769 1.467 3.209 3.269 3.211l2.172 0.001c0.561 0 1.015 0.446 1.015 0.995z"></path>
<path fill="#777d82" stroke="#777d82" stroke-linejoin="round" stroke-linecap="round" stroke-miterlimit="4" stroke-width="2" d="M8.26 8.261h5.072v5.072h-5.072v-5.072z"></path>
<path fill="#777d82" stroke="#777d82" stroke-linejoin="round" stroke-linecap="round" stroke-miterlimit="4" stroke-width="2" d="M8.159 18.827h5.173v5.173h-5.173v-5.173z"></path>
<path fill="#777d82" stroke="#777d82" stroke-linejoin="round" stroke-linecap="round" stroke-miterlimit="4" stroke-width="2" d="M18.667 18.827h5.173v1.173h-5.173v-1.173z"></path>
<path fill="#777d82" stroke="#777d82" stroke-linejoin="round" stroke-linecap="round" stroke-miterlimit="4" stroke-width="2" d="M23.839 13.173h-5.173v-5.173h5.173v5.173z"></path>
</svg>
