<!-- Generated by IcoMoon.io -->
<svg version="1.1" xmlns="http://www.w3.org/2000/svg" width="32" height="32" viewBox="0 0 32 32">
<path fill="#777d82" d="M23.892 19.093c-0.345 0.335-0.504 0.819-0.425 1.293l1.185 6.56c0.1 0.556-0.135 1.119-0.6 1.44-0.456 0.333-1.063 0.373-1.56 0.107l-5.905-3.080c-0.205-0.109-0.433-0.168-0.667-0.175h-0.361c-0.125 0.019-0.248 0.059-0.36 0.12l-5.907 3.095c-0.292 0.147-0.623 0.199-0.947 0.147-0.789-0.149-1.316-0.901-1.187-1.695l1.187-6.56c0.079-0.479-0.080-0.965-0.425-1.305l-4.815-4.667c-0.403-0.391-0.543-0.977-0.359-1.507 0.179-0.528 0.635-0.913 1.185-1l6.627-0.961c0.504-0.052 0.947-0.359 1.173-0.812l2.92-5.987c0.069-0.133 0.159-0.256 0.267-0.36l0.12-0.093c0.063-0.069 0.135-0.127 0.215-0.173l0.145-0.053 0.227-0.093h0.561c0.501 0.052 0.943 0.352 1.173 0.8l2.959 5.96c0.213 0.436 0.628 0.739 1.107 0.812l6.627 0.961c0.56 0.080 1.028 0.467 1.213 1 0.175 0.535 0.024 1.121-0.387 1.507l-4.987 4.72z"></path>
</svg>
