<!-- Generated by IcoMoon.io -->
<svg version="1.1" xmlns="http://www.w3.org/2000/svg" width="32" height="32" viewBox="0 0 32 32">
<path fill="#777d82" d="M14.273 4.692c-0.894 0-1.654 0.621-1.868 1.458h7.177c-0.213-0.837-0.974-1.458-1.868-1.458h-3.442zM21.609 6.15h2.641c2.801 0 5.083 2.309 5.083 5.144 0 0-0.080 1.2-0.107 2.872-0.003 0.132-0.067 0.262-0.172 0.34-0.642 0.474-1.229 0.865-1.282 0.892-2.214 1.485-4.788 2.53-7.529 3.050-0.179 0.035-0.355-0.058-0.446-0.217-0.768-1.331-2.204-2.198-3.805-2.198-1.59 0-3.039 0.857-3.83 2.19-0.092 0.157-0.265 0.247-0.443 0.213-2.719-0.521-5.292-1.565-7.493-3.025l-1.281-0.891c-0.107-0.067-0.173-0.189-0.173-0.324-0.040-0.689-0.107-2.903-0.107-2.903 0-2.835 2.281-5.144 5.083-5.144h2.628c0.253-1.958 1.894-3.484 3.895-3.484h3.442c2.001 0 3.642 1.526 3.895 3.484zM28.88 17.087l-0.053 0.027c-2.695 1.809-5.936 3.011-9.338 3.511-0.48 0.067-0.961-0.243-1.094-0.729-0.293-1.107-1.241-1.836-2.375-1.836h-0.040c-1.134 0-2.081 0.729-2.375 1.836-0.133 0.486-0.614 0.797-1.094 0.729-3.402-0.5-6.643-1.701-9.338-3.511-0.013-0.013-0.147-0.095-0.253-0.027-0.12 0.068-0.12 0.23-0.12 0.23l0.093 6.886c0 2.835 2.268 5.131 5.069 5.131h16.061c2.801 0 5.069-2.295 5.069-5.131l0.107-6.886c0 0 0-0.162-0.12-0.23-0.067-0.040-0.147-0.027-0.2 0zM16.994 22.744c0 0.567-0.44 1.013-1.001 1.013-0.547 0-1.001-0.445-1.001-1.013v-1.742c0-0.554 0.454-1.013 1.001-1.013 0.56 0 1.001 0.459 1.001 1.013v1.742z"></path>
</svg>
