<!-- Generated by IcoMoon.io -->
<svg version="1.1" xmlns="http://www.w3.org/2000/svg" width="29" height="32" viewBox="0 0 29 32">
<path d="M21.457 1.23l0.002 1.199c4.407 0.345 7.319 3.349 7.324 7.954l0.017 13.481c0.006 5.022-3.148 8.111-8.205 8.119l-12.352 0.016c-5.025 0.006-8.219-3.157-8.226-8.193l-0.017-13.323c-0.006-4.636 2.802-7.631 7.21-8.036l-0.002-1.199c-0.002-0.704 0.52-1.233 1.215-1.233 0.695-0.002 1.216 0.526 1.218 1.23l0.002 1.119 9.384-0.013-0.002-1.119c-0.002-0.704 0.52-1.231 1.215-1.233 0.679-0.002 1.216 0.526 1.218 1.23zM2.434 10.979l23.917-0.032v-0.56c-0.068-3.438-1.793-5.242-4.889-5.511l0.002 1.231c0 0.688-0.536 1.233-1.215 1.233-0.695 0.002-1.218-0.542-1.218-1.23l-0.001-1.295-9.384 0.013 0.002 1.294c0 0.689-0.52 1.233-1.215 1.233-0.695 0.002-1.218-0.541-1.218-1.23l-0.002-1.231c-3.080 0.309-4.785 2.119-4.78 5.588l0.002 0.497zM19.584 18.247v0.018c0.016 0.736 0.616 1.294 1.344 1.278 0.711-0.018 1.278-0.627 1.262-1.363-0.033-0.704-0.604-1.278-1.313-1.276-0.727 0.016-1.295 0.608-1.294 1.343zM20.889 25.427c-0.727-0.016-1.313-0.622-1.314-1.358-0.016-0.736 0.567-1.345 1.294-1.363h0.016c0.742 0 1.344 0.606 1.344 1.358 0.002 0.752-0.599 1.361-1.34 1.362zM13.075 18.272c0.032 0.736 0.633 1.31 1.36 1.278 0.711-0.034 1.278-0.641 1.246-1.377-0.017-0.72-0.602-1.279-1.313-1.278-0.727 0.032-1.295 0.641-1.294 1.377zM14.442 25.355c-0.727 0.032-1.327-0.542-1.36-1.278 0-0.736 0.567-1.343 1.294-1.377 0.711-0.002 1.297 0.558 1.313 1.276 0.033 0.737-0.536 1.345-1.246 1.379zM6.567 18.328c0.032 0.736 0.633 1.311 1.36 1.278 0.711-0.032 1.278-0.641 1.245-1.377-0.016-0.72-0.6-1.279-1.313-1.278-0.727 0.032-1.294 0.641-1.292 1.377zM7.933 25.363c-0.727 0.034-1.327-0.542-1.36-1.278-0.002-0.736 0.567-1.345 1.294-1.377 0.711-0.002 1.297 0.558 1.313 1.278 0.033 0.736-0.534 1.345-1.246 1.377z"></path>
</svg>
