<!-- Generated by IcoMoon.io -->
<svg version="1.1" xmlns="http://www.w3.org/2000/svg" width="41" height="32" viewBox="0 0 41 32">
<path d="M24.027 17.688h5.143l-8.598-8.518-8.598 8.518h5.143v6.911h6.911v-6.911zM33.187 12.625c2.197 0.161 4.072 1.071 5.625 2.732 1.554 1.607 2.33 3.536 2.33 5.786 0 2.357-0.857 4.393-2.571 6.107-1.661 1.661-3.67 2.491-6.027 2.491h-22.259c-2.839 0-5.277-0.991-7.313-2.973-1.982-2.036-2.973-4.473-2.973-7.312 0-2.625 0.884-4.902 2.652-6.83 1.768-1.982 3.938-3.107 6.509-3.375 1.125-2.089 2.705-3.777 4.741-5.063s4.259-1.929 6.67-1.929c3.107 0 5.839 0.991 8.196 2.973 2.357 1.929 3.83 4.393 4.42 7.393z"></path>
</svg>
