<!-- Generated by IcoMoon.io -->
<svg version="1.1" xmlns="http://www.w3.org/2000/svg" width="32" height="32" viewBox="0 0 32 32">
<path d="M16.205 22.587l3.789-3.827c0.383-0.4 0.383-1.027-0.013-1.413-0.383-0.387-1.003-0.387-1.386 0l-2.099 2.133v-6.427c0-0.56-0.436-1-0.977-1s-0.99 0.44-0.99 1v6.427l-2.099-2.133c-0.383-0.387-1.003-0.387-1.386 0s-0.383 1.013 0 1.413l3.776 3.827c0.092 0.093 0.198 0.16 0.317 0.213s0.251 0.080 0.383 0.080c0.132 0 0.251-0.027 0.37-0.080s0.225-0.12 0.317-0.213zM25.771 12.434c0.31-0.004 0.648-0.007 0.955-0.007 0.343 0 0.607 0.267 0.607 0.6v10.72c0 3.307-2.667 5.987-5.941 5.987h-10.495c-3.446 0-6.231-2.813-6.231-6.28v-14.373c0-3.307 2.653-6.013 5.954-6.013h7.050c0.33 0 0.607 0.28 0.607 0.613v4.293c0 2.44 1.98 4.44 4.409 4.453 0.558 0 1.057 0.004 1.493 0.008 0.338 0.003 0.637 0.005 0.896 0.005 0.188 0 0.432-0.003 0.695-0.006zM26.139 10.488c-1.084 0.004-2.363 0-3.283-0.009-1.46 0-2.663-1.215-2.663-2.689v-3.515c0-0.575 0.691-0.86 1.084-0.445 1.017 1.067 2.573 2.701 3.888 4.082 0.533 0.56 1.026 1.078 1.428 1.5 0.386 0.404 0.103 1.075-0.454 1.076z"></path>
</svg>
